<svg xmlns="http://www.w3.org/2000/svg" viewBox="0 0 120 120" width="120" height="120">
  <defs>
    <linearGradient id="bg" x1="0" y1="0" x2="1" y2="1">
      <stop offset="0" stop-color="#a78bfa"/>
      <stop offset="1" stop-color="#6d28d9"/>
    </linearGradient>
    <linearGradient id="q" x1="0" y1="0" x2="0" y2="1">
      <stop offset="0" stop-color="#ffffff"/>
      <stop offset="1" stop-color="#ede9fe"/>
    </linearGradient>
  </defs>
  <rect width="120" height="120" rx="26" fill="url(#bg)"/>
  <!-- burbuja de pregunta (dentro de la safe-zone maskable) -->
  <g>
    <path d="M30 30 h60 a8 8 0 0 1 8 8 v34 a8 8 0 0 1 -8 8 H62 l-12 12 v-12 H30 a8 8 0 0 1 -8 -8 V38 a8 8 0 0 1 8 -8 z"
          fill="url(#q)"/>
    <!-- signo de interrogación -->
    <path d="M52 46 a10 10 0 0 1 18 6 c0 7 -8 8 -8 14"
          fill="none" stroke="#6d28d9" stroke-width="7" stroke-linecap="round"/>
    <circle cx="61.5" cy="70.5" r="4.6" fill="#6d28d9"/>
  </g>
  <!-- insignia de acierto -->
  <g transform="translate(90,86)">
    <circle r="18" fill="#22c55e"/>
    <path d="M-8 0 l5 6 l11 -12" fill="none" stroke="#fff" stroke-width="5" stroke-linecap="round" stroke-linejoin="round"/>
  </g>
</svg>
